# xmcd CD database file
#
# Track frame offsets:
#	150
#	16167
#	31050
#	46860
#	69486
#	89038
#	108433
#	129214
#	153273
#	171303
#	192277
#	209977
#	229643
#	250479
#	267230
#	287883
#	307198
#	324792
#
# Disc length: 4616 seconds
#
# Revision: 1
# Processed by: cddbd v1.5.2PL0 Copyright (c) Steve Scherf et al.
# Submitted via: CDex 1.70beta2
#
DISCID=fe120612
DTITLE=Various Artist - A Dixiefrog Blues Night
DYEAR=2009
DGENRE=Blues
TTITLE0=Wayne Lavallee_Big Country
TTITLE1=Amar Sundy_L'Halem
TTITLE2=Bjorn Berge_Crazy Tilmes
TTITLE3=Nico Wayne Toussaint_Balade Du Bois Joli
TTITLE4=Neal Black_Black Girl
TTITLE5=Jean Jacques Milteau_Taj Mahal
TTITLE6=Bill Deraime_La Collectionneuse
TTITLE7=Bjorn Berge_Drifting Blues
TTITLE8=Jean Jacques Milteau_Rock 'N' Roll Will Never Die
TTITLE9=Eric Bibb_Wayfaring Stranger
TTITLE10=Jean Chartron_Michel C.
TTITLE11=Wayne Lavallee_Shed Allot Of Light
TTITLE12=Pufa Fe'_Red. Black On Blues
TTITLE13=Mighty Mo Rodgers_Dispatches From The Moon
TTITLE14=Tom Principato_Fish Fry
TTITLE15=Leadfoot Rivet_I Was All Wrong
TTITLE16=Fred Chapellier and Billy Price_All The Love In The World
TTITLE17=Eric Bibb_Don't Ever Let Nobody Drag Your Spirit Down
EXTD=YEAR: 2009
EXTT0=
EXTT1=
EXTT2=
EXTT3=
EXTT4=
EXTT5=
EXTT6=
EXTT7=
EXTT8=
EXTT9=
EXTT10=
EXTT11=
EXTT12=
EXTT13=
EXTT14=
EXTT15=
EXTT16=
EXTT17=
PLAYORDER=
